<mxfile host="app.diagrams.net" modified="2023-07-27T21:29:21.701Z" agent="Mozilla/5.0 (Windows NT 10.0; Win64; x64) AppleWebKit/537.36 (KHTML, like Gecko) Chrome/115.0.0.0 Safari/537.36" etag="PSyZWrtuYN98Sa6l5dW5" version="21.6.5" type="github">
  <diagram name="PÃ¡gina-1" id="cuV5dA-J_6gpWKjRAQz8">
    <mxGraphModel dx="880" dy="1305" grid="1" gridSize="10" guides="1" tooltips="1" connect="1" arrows="1" fold="1" page="1" pageScale="1" pageWidth="1169" pageHeight="827" math="0" shadow="0">
      <root>
        <mxCell id="0" />
        <mxCell id="1" parent="0" />
        <mxCell id="L9YA9zPWUL3kBHUaPzno-4" style="edgeStyle=orthogonalEdgeStyle;rounded=0;orthogonalLoop=1;jettySize=auto;html=1;" parent="1" source="L9YA9zPWUL3kBHUaPzno-2" target="L9YA9zPWUL3kBHUaPzno-3" edge="1">
          <mxGeometry relative="1" as="geometry" />
        </mxCell>
        <mxCell id="L9YA9zPWUL3kBHUaPzno-7" style="edgeStyle=orthogonalEdgeStyle;rounded=0;orthogonalLoop=1;jettySize=auto;html=1;" parent="1" source="L9YA9zPWUL3kBHUaPzno-2" target="L9YA9zPWUL3kBHUaPzno-5" edge="1">
          <mxGeometry relative="1" as="geometry" />
        </mxCell>
        <mxCell id="L9YA9zPWUL3kBHUaPzno-8" style="edgeStyle=orthogonalEdgeStyle;rounded=0;orthogonalLoop=1;jettySize=auto;html=1;" parent="1" source="L9YA9zPWUL3kBHUaPzno-2" target="L9YA9zPWUL3kBHUaPzno-6" edge="1">
          <mxGeometry relative="1" as="geometry" />
        </mxCell>
        <mxCell id="L9YA9zPWUL3kBHUaPzno-10" style="edgeStyle=orthogonalEdgeStyle;rounded=0;orthogonalLoop=1;jettySize=auto;html=1;" parent="1" source="L9YA9zPWUL3kBHUaPzno-2" target="L9YA9zPWUL3kBHUaPzno-9" edge="1">
          <mxGeometry relative="1" as="geometry" />
        </mxCell>
        <mxCell id="TPu7JkjWUdRblXyuX2_S-2" style="edgeStyle=orthogonalEdgeStyle;rounded=0;orthogonalLoop=1;jettySize=auto;html=1;entryX=0.49;entryY=0.244;entryDx=0;entryDy=0;entryPerimeter=0;" edge="1" parent="1" source="L9YA9zPWUL3kBHUaPzno-2" target="TPu7JkjWUdRblXyuX2_S-1">
          <mxGeometry relative="1" as="geometry" />
        </mxCell>
        <mxCell id="L9YA9zPWUL3kBHUaPzno-2" value="" style="image;html=1;image=img/lib/clip_art/computers/Server_128x128.png" parent="1" vertex="1">
          <mxGeometry x="400" y="130" width="170" height="100" as="geometry" />
        </mxCell>
        <mxCell id="L9YA9zPWUL3kBHUaPzno-3" value="" style="sketch=0;pointerEvents=1;shadow=0;dashed=0;html=1;strokeColor=none;labelPosition=center;verticalLabelPosition=bottom;verticalAlign=top;outlineConnect=0;align=center;shape=mxgraph.office.servers.physical_host;fillColor=#2072B8;" parent="1" vertex="1">
          <mxGeometry x="380" y="290" width="80" height="80" as="geometry" />
        </mxCell>
        <mxCell id="L9YA9zPWUL3kBHUaPzno-5" value="" style="sketch=0;pointerEvents=1;shadow=0;dashed=0;html=1;strokeColor=none;labelPosition=center;verticalLabelPosition=bottom;verticalAlign=top;outlineConnect=0;align=center;shape=mxgraph.office.servers.physical_host;fillColor=#2072B8;" parent="1" vertex="1">
          <mxGeometry x="270" y="290" width="80" height="80" as="geometry" />
        </mxCell>
        <mxCell id="L9YA9zPWUL3kBHUaPzno-6" value="" style="sketch=0;pointerEvents=1;shadow=0;dashed=0;html=1;strokeColor=none;labelPosition=center;verticalLabelPosition=bottom;verticalAlign=top;outlineConnect=0;align=center;shape=mxgraph.office.servers.physical_host;fillColor=#2072B8;" parent="1" vertex="1">
          <mxGeometry x="505" y="290" width="80" height="80" as="geometry" />
        </mxCell>
        <mxCell id="L9YA9zPWUL3kBHUaPzno-9" value="" style="html=1;verticalLabelPosition=bottom;verticalAlign=top;outlineConnect=0;shadow=0;dashed=0;shape=mxgraph.rack.hpe_aruba.switches.jl253a_aruba_2930f_24g_4sfpplus_switch;" parent="1" vertex="1">
          <mxGeometry x="610" y="320" width="190" height="50" as="geometry" />
        </mxCell>
        <mxCell id="L9YA9zPWUL3kBHUaPzno-14" style="edgeStyle=orthogonalEdgeStyle;rounded=0;orthogonalLoop=1;jettySize=auto;html=1;" parent="1" source="L9YA9zPWUL3kBHUaPzno-11" target="L9YA9zPWUL3kBHUaPzno-2" edge="1">
          <mxGeometry relative="1" as="geometry" />
        </mxCell>
        <mxCell id="L9YA9zPWUL3kBHUaPzno-11" value="" style="fontColor=#0066CC;verticalAlign=top;verticalLabelPosition=bottom;labelPosition=center;align=center;html=1;outlineConnect=0;fillColor=#CCCCCC;strokeColor=#6881B3;gradientColor=none;gradientDirection=north;strokeWidth=2;shape=mxgraph.networks.firewall;" parent="1" vertex="1">
          <mxGeometry x="435" width="100" height="70" as="geometry" />
        </mxCell>
        <mxCell id="L9YA9zPWUL3kBHUaPzno-13" style="edgeStyle=orthogonalEdgeStyle;rounded=0;orthogonalLoop=1;jettySize=auto;html=1;" parent="1" source="L9YA9zPWUL3kBHUaPzno-12" target="L9YA9zPWUL3kBHUaPzno-11" edge="1">
          <mxGeometry relative="1" as="geometry" />
        </mxCell>
        <mxCell id="L9YA9zPWUL3kBHUaPzno-12" value="" style="image;aspect=fixed;perimeter=ellipsePerimeter;html=1;align=center;shadow=0;dashed=0;spacingTop=3;image=img/lib/active_directory/internet_cloud.svg;" parent="1" vertex="1">
          <mxGeometry x="395" y="-170" width="180" height="113.4" as="geometry" />
        </mxCell>
        <mxCell id="TPu7JkjWUdRblXyuX2_S-1" value="" style="verticalLabelPosition=bottom;html=1;verticalAlign=top;align=center;strokeColor=none;fillColor=#00BEF2;shape=mxgraph.azure.mysql_database;" vertex="1" parent="1">
          <mxGeometry x="120" y="290" width="90" height="80" as="geometry" />
        </mxCell>
        <mxCell id="TPu7JkjWUdRblXyuX2_S-3" value="&lt;b&gt;Internet&lt;/b&gt;" style="text;html=1;align=center;verticalAlign=middle;resizable=0;points=[];autosize=1;strokeColor=none;fillColor=none;" vertex="1" parent="1">
          <mxGeometry x="565" y="-120" width="70" height="30" as="geometry" />
        </mxCell>
        <mxCell id="TPu7JkjWUdRblXyuX2_S-4" value="&lt;b&gt;Firewall&lt;/b&gt;" style="text;html=1;align=center;verticalAlign=middle;resizable=0;points=[];autosize=1;strokeColor=none;fillColor=none;" vertex="1" parent="1">
          <mxGeometry x="480" y="-30" width="70" height="30" as="geometry" />
        </mxCell>
        <mxCell id="TPu7JkjWUdRblXyuX2_S-5" value="&lt;b&gt;Server Zabbix&lt;/b&gt;" style="text;html=1;align=center;verticalAlign=middle;resizable=0;points=[];autosize=1;strokeColor=none;fillColor=none;" vertex="1" parent="1">
          <mxGeometry x="380" y="110" width="100" height="30" as="geometry" />
        </mxCell>
        <mxCell id="TPu7JkjWUdRblXyuX2_S-6" value="&lt;b&gt;Host&lt;/b&gt;" style="text;html=1;align=center;verticalAlign=middle;resizable=0;points=[];autosize=1;strokeColor=none;fillColor=none;" vertex="1" parent="1">
          <mxGeometry x="520" y="370" width="50" height="30" as="geometry" />
        </mxCell>
        <mxCell id="TPu7JkjWUdRblXyuX2_S-7" value="&lt;b&gt;Host&lt;/b&gt;" style="text;html=1;align=center;verticalAlign=middle;resizable=0;points=[];autosize=1;strokeColor=none;fillColor=none;" vertex="1" parent="1">
          <mxGeometry x="280" y="370" width="50" height="30" as="geometry" />
        </mxCell>
        <mxCell id="TPu7JkjWUdRblXyuX2_S-8" value="&lt;b&gt;Host&lt;/b&gt;" style="text;html=1;align=center;verticalAlign=middle;resizable=0;points=[];autosize=1;strokeColor=none;fillColor=none;" vertex="1" parent="1">
          <mxGeometry x="400" y="370" width="50" height="30" as="geometry" />
        </mxCell>
        <mxCell id="TPu7JkjWUdRblXyuX2_S-9" value="&lt;b&gt;Server Mysql&lt;/b&gt;" style="text;html=1;align=center;verticalAlign=middle;resizable=0;points=[];autosize=1;strokeColor=none;fillColor=none;" vertex="1" parent="1">
          <mxGeometry x="115" y="370" width="100" height="30" as="geometry" />
        </mxCell>
        <mxCell id="TPu7JkjWUdRblXyuX2_S-10" value="&lt;b&gt;Suitch Aruba 2930F&lt;/b&gt;" style="text;html=1;align=center;verticalAlign=middle;resizable=0;points=[];autosize=1;strokeColor=none;fillColor=none;" vertex="1" parent="1">
          <mxGeometry x="635" y="370" width="140" height="30" as="geometry" />
        </mxCell>
      </root>
    </mxGraphModel>
  </diagram>
</mxfile>
